<svg version="1.1" id="dtl-logo-animation-final" xmlns="http://www.w3.org/2000/svg" xmlns:xlink="http://www.w3.org/1999/xlink"
    x="0px" y="0px" width="100%" viewBox="0 0 370 100" enable-background="new 0 0 370 100" xml:space="preserve">
    <style>
        .logo-path {
            stroke-linecap: round;
            stroke-linejoin: round;
            fill-opacity: 0;
            stroke-dasharray: 2000;
            stroke-dashoffset: 2000;
            animation: draw 1.5s ease-in-out forwards, fillIn 0.5s ease-out forwards;
        }

        .logo-path.main-text {
            stroke: #000000; /* Black stroke */
            fill: #a21b2d;   /* Dark Red fill (from original logo) */
            stroke-width: 1.5;
        }

        /* Styling for the sub-text "Vent et Location" - Black */
        .logo-path.sub-text {
            stroke: #000000; /* Black stroke */
            fill: #000000;   /* Black fill (updated from original gray) */
            stroke-width: 1;
        }

        /* Keyframe Animations */
        @keyframes draw {
            to {
                stroke-dashoffset: 0;
            }
        }

        @keyframes fillIn {
            to {
                fill-opacity: 1;
            }
        }

        /* 
         * Animation Timing Delays
         * The first value is for the 'draw' animation.
         * The second value is for the 'fillIn' animation, which starts after all drawing is complete.
        */
        #d-1 { animation-delay: 0.1s, 3.0s; }
        #t-1 { animation-delay: 0.4s, 3.0s; }
        #l-1 { animation-delay: 0.7s, 3.0s; }
        #sub-vent     { animation-delay: 1.2s, 3.0s; }
        #sub-et       { animation-delay: 1.5s, 3.0s; }
        #sub-location { animation-delay: 1.7s, 3.0s; }

    </style>

    <!-- Main "DTL" Logo - Positioned and Centered -->
    <g id="dtl-main-logo" transform="translate(138, 10)">
        <path id="d-1" class="logo-path main-text" d="M0 45.26L0 9.47L12.33 9.47Q16.50 9.47 18.70 9.99Q21.78 10.69 23.95 12.55Q26.78 14.94 28.19 18.66Q29.59 22.39 29.59 27.17Q29.59 31.25 28.64 34.40Q27.69 37.55 26.20 39.61Q24.71 41.67 22.94 42.86Q21.17 44.04 18.66 44.65Q16.16 45.26 12.92 45.26L0 45.26M4.74 41.04L12.38 41.04Q15.92 41.04 17.93 40.38Q19.95 39.72 21.14 38.53Q22.83 36.84 23.77 34.00Q24.71 31.15 24.71 27.10Q24.71 21.48 22.86 18.47Q21.02 15.45 18.38 14.43Q16.48 13.70 12.26 13.70L4.74 13.70L4.74 41.04Z"/>
        <path id="t-1" class="logo-path main-text" d="M45.21 45.26L45.21 13.70L33.42 13.70L33.42 9.47L61.79 9.47L61.79 13.70L49.95 13.70L49.95 45.26L45.21 45.26Z"/>
        <path id="l-1" class="logo-path main-text" d="M66.46 45.26L66.46 9.47L71.19 9.47L71.19 41.04L88.82 41.04L88.82 45.26L66.46 45.26Z"/>
    </g>

    <!-- Sub-text "Vent et Location" - Positioned below DTL -->
    <g id="dtl-sub-text" transform="translate(0, 55)">
        <path id="sub-vent" class="logo-path sub-text" d="M13.87 45.26L0 9.47L5.13 9.47L14.43 35.47Q15.55 38.60 16.31 41.33Q17.14 38.40 18.24 35.47L27.91 9.47L32.74 9.47L18.73 45.26L13.87 45.26ZM51.42 36.91L55.96 37.48Q54.88 41.46 51.98 43.65Q49.07 45.85 44.56 45.85Q38.87 45.85 35.53 42.35Q32.20 38.84 32.20 32.52Q32.20 25.98 35.57 22.36Q38.94 18.75 44.31 18.75Q49.51 18.75 52.81 22.29Q56.10 25.83 56.10 32.25Q56.10 32.64 56.08 33.42L36.74 33.42Q36.99 37.70 39.16 39.97Q41.33 42.24 44.58 42.24Q47.00 42.24 48.71 40.97Q50.42 39.70 51.42 36.91M36.99 29.81L51.46 29.81Q51.17 26.54 49.80 24.90Q47.71 22.36 44.36 22.36Q41.33 22.36 39.27 24.39Q37.21 26.42 36.99 29.81ZM61.47 45.26L61.47 19.34L65.43 19.34L65.43 23.02Q68.29 18.75 73.68 18.75Q76.03 18.75 77.99 19.59Q79.96 20.43 80.93 21.80Q81.91 23.17 82.30 25.05Q82.54 26.27 82.54 29.32L82.54 45.26L78.15 45.26L78.15 29.49Q78.15 26.81 77.64 25.48Q77.12 24.15 75.82 23.35Q74.51 22.56 72.75 22.56Q69.95 22.56 67.91 24.34Q65.87 26.12 65.87 31.10L65.87 45.26L61.47 45.26ZM98.88 41.33L99.51 45.21Q97.66 45.61 96.19 45.61Q93.80 45.61 92.48 44.85Q91.16 44.09 90.63 42.86Q90.09 41.63 90.09 37.67L90.09 22.75L86.87 22.75L86.87 19.34L90.09 19.34L90.09 12.92L94.46 10.28L94.46 19.34L98.88 19.34L98.88 22.75L94.46 22.75L94.46 37.92Q94.46 39.79 94.69 40.33Q94.92 40.87 95.45 41.19Q95.97 41.50 96.95 41.50Q97.68 41.50 98.88 41.33Z"/>
        <path id="sub-et" class="logo-path sub-text" d="M134.81 36.91L139.36 37.48Q138.28 41.46 135.38 43.65Q132.47 45.85 127.95 45.85Q122.27 45.85 118.93 42.35Q115.60 38.84 115.60 32.52Q115.60 25.98 118.97 22.36Q122.34 18.75 127.71 18.75Q132.91 18.75 136.21 22.29Q139.50 25.83 139.50 32.25Q139.50 32.64 139.48 33.42L120.14 33.42Q120.39 37.70 122.56 39.97Q124.73 42.24 127.98 42.24Q130.40 42.24 132.10 40.97Q133.81 39.70 134.81 36.91M120.39 29.81L134.86 29.81Q134.57 26.54 133.20 24.90Q131.10 22.36 127.76 22.36Q124.73 22.36 122.67 24.39Q120.61 26.42 120.39 29.81ZM154.47 41.33L155.10 45.21Q153.25 45.61 151.78 45.61Q149.39 45.61 148.07 44.85Q146.75 44.09 146.22 42.86Q145.68 41.63 145.68 37.67L145.68 22.75L142.46 22.75L142.46 19.34L145.68 19.34L145.68 12.92L150.05 10.28L150.05 19.34L154.47 19.34L154.47 22.75L150.05 22.75L150.05 37.92Q150.05 39.79 150.28 40.33Q150.51 40.87 151.04 41.19Q151.56 41.50 152.54 41.50Q153.27 41.50 154.47 41.33Z"/>
        <path id="sub-location" class="logo-path sub-text" d="M173.02 45.26L173.02 9.47L177.76 9.47L177.76 41.04L195.39 41.04L195.39 45.26L173.02 45.26ZM198.83 32.30Q198.83 25.10 202.83 21.63Q206.18 18.75 210.99 18.75Q216.33 18.75 219.73 22.25Q223.12 25.76 223.12 31.93Q223.12 36.94 221.62 39.81Q220.12 42.68 217.25 44.26Q214.38 45.85 210.99 45.85Q205.54 45.85 202.19 42.36Q198.83 38.87 198.83 32.30M203.34 32.30Q203.34 37.28 205.52 39.76Q207.69 42.24 210.99 42.24Q214.26 42.24 216.43 39.75Q218.60 37.26 218.60 32.15Q218.60 27.34 216.42 24.87Q214.23 22.39 210.99 22.39Q207.69 22.39 205.52 24.85Q203.34 27.32 203.34 32.30ZM245.19 35.77L249.51 36.33Q248.80 40.80 245.89 43.32Q242.97 45.85 238.72 45.85Q233.40 45.85 230.16 42.37Q226.93 38.89 226.93 32.40Q226.93 28.20 228.32 25.05Q229.71 21.90 232.56 20.32Q235.40 18.75 238.75 18.75Q242.97 18.75 245.65 20.89Q248.34 23.02 249.10 26.95L244.82 27.61Q244.21 25 242.66 23.68Q241.11 22.36 238.92 22.36Q235.60 22.36 233.52 24.74Q231.45 27.12 231.45 32.28Q231.45 37.50 233.45 39.87Q235.45 42.24 238.67 42.24Q241.26 42.24 242.99 40.65Q244.73 39.06 245.19 35.77ZM270.19 42.07Q267.75 44.14 265.49 45.00Q263.23 45.85 260.64 45.85Q256.37 45.85 254.08 43.76Q251.78 41.67 251.78 38.43Q251.78 36.52 252.65 34.95Q253.52 33.37 254.92 32.42Q256.32 31.47 258.08 30.98Q259.38 30.64 261.99 30.32Q267.31 29.69 269.82 28.81Q269.85 27.91 269.85 27.66Q269.85 24.98 268.60 23.88Q266.92 22.39 263.60 22.39Q260.50 22.39 259.02 23.47Q257.54 24.56 256.84 27.32L252.54 26.73Q253.13 23.97 254.47 22.28Q255.81 20.58 258.35 19.67Q260.89 18.75 264.23 18.75Q267.55 18.75 269.63 19.53Q271.70 20.31 272.68 21.50Q273.66 22.68 274.05 24.49Q274.27 25.61 274.27 28.54L274.27 34.40Q274.27 40.53 274.55 42.15Q274.83 43.77 275.66 45.26L271.07 45.26Q270.39 43.90 270.19 42.07M269.82 32.25Q267.43 33.23 262.65 33.91Q259.94 34.30 258.81 34.79Q257.69 35.28 257.08 36.22Q256.47 37.16 256.47 38.31Q256.47 40.06 257.80 41.24Q259.13 42.41 261.69 42.41Q264.23 42.41 266.21 41.30Q268.19 40.19 269.12 38.26Q269.82 36.77 269.82 33.86L269.82 32.25ZM290.67 41.33L291.31 45.21Q289.45 45.61 287.99 45.61Q285.60 45.61 284.28 44.85Q282.96 44.09 282.42 42.86Q281.88 41.63 281.88 37.67L281.88 22.75L278.66 22.75L278.66 19.34L281.88 19.34L281.88 12.92L286.25 10.28L286.25 19.34L290.67 19.34L290.67 22.75L286.25 22.75L286.25 37.92Q286.25 39.79 286.49 40.33Q286.72 40.87 287.24 41.19Q287.77 41.50 288.75 41.50Q289.48 41.50 290.67 41.33ZM295.00 14.53L295.00 9.47L299.39 9.47L299.39 14.53L295.00 14.53M295.00 45.26L295.00 19.34L299.39 19.34L299.39 45.26L295.00 45.26ZM304.44 32.30Q304.44 25.10 308.45 21.63Q311.79 18.75 316.60 18.75Q321.95 18.75 325.34 22.25Q328.74 25.76 328.74 31.93Q328.74 36.94 327.23 39.81Q325.73 42.68 322.86 44.26Q320.00 45.85 316.60 45.85Q311.16 45.85 307.80 42.36Q304.44 38.87 304.44 32.30M308.96 32.30Q308.96 37.28 311.13 39.76Q313.31 42.24 316.60 42.24Q319.87 42.24 322.05 39.75Q324.22 37.26 324.22 32.15Q324.22 27.34 322.03 24.87Q319.85 22.39 316.60 22.39Q313.31 22.39 311.13 24.85Q308.96 27.32 308.96 32.30ZM333.89 45.26L333.89 19.34L337.84 19.34L337.84 23.02Q340.70 18.75 346.09 18.75Q348.44 18.75 350.40 19.59Q352.37 20.43 353.34 21.80Q354.32 23.17 354.71 25.05Q354.96 26.27 354.96 29.32L354.96 45.26L350.56 45.26L350.56 29.49Q350.56 26.81 350.05 25.48Q349.54 24.15 348.23 23.35Q346.92 22.56 345.17 22.56Q342.36 22.56 340.32 24.34Q338.28 26.12 338.28 31.10L338.28 45.26L333.89 45.26Z"/>
    </g>

</svg>